<svg width="64" height="63" viewBox="0 0 64 63" fill="none" xmlns="http://www.w3.org/2000/svg">
<path d="M17.8386 23.5174V39.8325L31.9675 47.99L46.0963 39.8325V23.5174L31.9675 15.3599L17.8386 23.5174Z" stroke="white" stroke-width="2.61041" stroke-linecap="round" stroke-linejoin="round"/>
<path d="M8.79614 18.2966V45.0533L31.9675 58.4317L55.1401 45.0533V18.2966L31.9675 4.91821L8.79614 18.2966Z" stroke="white" stroke-width="2.61041" stroke-linecap="round" stroke-linejoin="round"/>
<path d="M26.3157 28.4119V34.938L31.9672 38.201L37.6188 34.938V28.4119L31.9672 25.1489L26.3157 28.4119Z" stroke="white" stroke-width="2.61041" stroke-linecap="round" stroke-linejoin="round"/>
<path d="M46.0963 39.8326V50.2743M37.619 34.9381V39.5063M31.9675 15.36L41.0099 10.1392M17.8386 39.8326L8.79614 34.6118M35.9236 22.8649L31.9675 25.149M22.3598 32.654L26.3159 34.9381M22.3598 26.1279V37.2222L31.9675 42.7693L41.5751 37.2222V26.1279L31.9675 20.5808L22.3598 26.1279Z" stroke="white" stroke-width="2.61041" stroke-linecap="round" stroke-linejoin="round"/>
</svg>
