<svg width="182" height="40" viewBox="0 0 182 40" fill="none" xmlns="http://www.w3.org/2000/svg">
<path d="M17.5355 23.0436L22.889 19.9491L17.5355 16.8545V23.0436ZM29.4597 14.9669C29.5938 15.4517 29.6866 16.1015 29.7485 16.9267C29.8207 17.7519 29.8517 18.4637 29.8517 19.0826L29.9136 19.9491C29.9136 22.2081 29.7485 23.8688 29.4597 24.9312C29.2018 25.8596 28.6035 26.4579 27.6752 26.7157C27.1904 26.8498 26.3033 26.9427 24.9417 27.0046C23.6007 27.0768 22.3733 27.1077 21.2386 27.1077L19.5985 27.1696C15.2765 27.1696 12.5843 27.0046 11.5218 26.7157C10.5935 26.4579 9.99519 25.8596 9.73731 24.9312C9.60321 24.4464 9.51038 23.7966 9.44849 22.9714C9.37628 22.1462 9.34534 21.4344 9.34534 20.8155L9.28345 19.9491C9.28345 17.6901 9.44849 16.0293 9.73731 14.9669C9.99519 14.0385 10.5935 13.4403 11.5218 13.1824C12.0066 13.0483 12.8937 12.9554 14.2553 12.8936C15.5963 12.8214 16.8238 12.7904 17.9584 12.7904L19.5985 12.7285C23.9205 12.7285 26.6127 12.8936 27.6752 13.1824C28.6035 13.4403 29.2018 14.0385 29.4597 14.9669Z" fill="#EEF2F5"/>
<path d="M62.7154 9.63403H71.38C74.6809 9.63403 77.3628 12.3159 77.3628 15.6168V24.2814C77.3628 25.8681 76.7325 27.3899 75.6105 28.5118C74.4885 29.6338 72.9668 30.2641 71.38 30.2641H62.7154C59.4146 30.2641 56.7327 27.5822 56.7327 24.2814V15.6168C56.7327 14.03 57.363 12.5083 58.485 11.3863C59.6069 10.2644 61.1287 9.63403 62.7154 9.63403ZM62.5091 11.697C61.5242 11.697 60.5797 12.0883 59.8833 12.7847C59.1869 13.4811 58.7957 14.4256 58.7957 15.4105V24.4877C58.7957 26.5404 60.4564 28.2011 62.5091 28.2011H71.5863C72.5712 28.2011 73.5157 27.8099 74.2121 27.1135C74.9085 26.4171 75.2998 25.4726 75.2998 24.4877V15.4105C75.2998 13.3578 73.639 11.697 71.5863 11.697H62.5091ZM72.4631 13.2443C72.8051 13.2443 73.1331 13.3801 73.3749 13.622C73.6167 13.8638 73.7525 14.1917 73.7525 14.5337C73.7525 14.8756 73.6167 15.2036 73.3749 15.4454C73.1331 15.6872 72.8051 15.8231 72.4631 15.8231C72.1212 15.8231 71.7932 15.6872 71.5514 15.4454C71.3096 15.2036 71.1737 14.8756 71.1737 14.5337C71.1737 14.1917 71.3096 13.8638 71.5514 13.622C71.7932 13.3801 72.1212 13.2443 72.4631 13.2443ZM67.0477 14.7916C68.4156 14.7916 69.7274 15.3349 70.6946 16.3022C71.6619 17.2694 72.2052 18.5812 72.2052 19.9491C72.2052 21.317 71.6619 22.6288 70.6946 23.596C69.7274 24.5632 68.4156 25.1066 67.0477 25.1066C65.6799 25.1066 64.368 24.5632 63.4008 23.596C62.4336 22.6288 61.8902 21.317 61.8902 19.9491C61.8902 18.5812 62.4336 17.2694 63.4008 16.3022C64.368 15.3349 65.6799 14.7916 67.0477 14.7916ZM67.0477 16.8546C66.227 16.8546 65.4399 17.1806 64.8596 17.7609C64.2792 18.3413 63.9532 19.1284 63.9532 19.9491C63.9532 20.7698 64.2792 21.5569 64.8596 22.1372C65.4399 22.7176 66.227 23.0436 67.0477 23.0436C67.8684 23.0436 68.6555 22.7176 69.2359 22.1372C69.8162 21.5569 70.1422 20.7698 70.1422 19.9491C70.1422 19.1284 69.8162 18.3413 69.2359 17.7609C68.6555 17.1806 67.8684 16.8546 67.0477 16.8546Z" fill="#EEF2F5"/>
<path d="M111.607 29.7483H115.733V21.4859H119.45L119.859 17.3805H115.733V15.3072C115.733 15.0336 115.841 14.7712 116.035 14.5778C116.228 14.3844 116.491 14.2757 116.764 14.2757H119.859V10.1497H116.764C115.396 10.1497 114.085 10.693 113.117 11.6603C112.15 12.6275 111.607 13.9393 111.607 15.3072V17.3805H109.544L109.135 21.4859H111.607V29.7483Z" fill="#EEF2F5"/>
<path d="M172.736 13.761C171.942 14.122 171.086 14.3593 170.199 14.4727C171.106 13.9261 171.808 13.0596 172.138 12.0178C171.282 12.5335 170.333 12.8945 169.332 13.1008C168.517 12.2138 167.372 11.698 166.073 11.698C163.649 11.698 161.668 13.6785 161.668 16.1232C161.668 16.4739 161.709 16.8143 161.781 17.134C158.109 16.9484 154.839 15.1845 152.663 12.5129C152.281 13.1627 152.065 13.9261 152.065 14.7306C152.065 16.2676 152.838 17.6292 154.035 18.4028C153.303 18.4028 152.622 18.1965 152.023 17.887V17.918C152.023 20.0635 153.55 21.8583 155.572 22.2606C154.923 22.4383 154.241 22.463 153.581 22.3328C153.861 23.2122 154.41 23.9816 155.15 24.533C155.89 25.0843 156.784 25.3899 157.707 25.4067C156.143 26.645 154.204 27.3143 152.209 27.3047C151.858 27.3047 151.508 27.284 151.157 27.2428C153.117 28.5012 155.448 29.2336 157.944 29.2336C166.073 29.2336 170.539 22.4875 170.539 16.6389C170.539 16.4429 170.539 16.2573 170.529 16.0613C171.395 15.4424 172.138 14.6584 172.736 13.761Z" fill="#EEF2F5"/>
</svg>
